<svg width="361" height="361" viewBox="0 0 361 361" fill="none" xmlns="http://www.w3.org/2000/svg">
<path d="M39.0271 287.824V253.676H107.324V321.973H39.0271V287.824ZM97.5676 287.824V263.432H48.7839V312.216H97.5676V287.824ZM58.5406 287.824V273.189H87.8109V302.459H58.5406V287.824ZM126.838 317.095V312.216H117.081V292.703H126.838V263.432H136.595V253.676H117.081V243.919H78.0541V234.162H87.8109V224.405H68.2974V243.919H58.5406V234.162H39.0271V224.405H58.5406V204.892H48.7839V214.649H39.0271V195.135H58.5406V204.892H68.2974V214.649H78.0541V204.892H87.8109V214.649H107.324V204.892H97.5676V195.135H68.2974V185.378H97.5676V175.622H68.2974V165.865H58.5406V175.622H39.0271V146.351H48.7839V156.108H107.324V146.351H97.5676V136.595H78.0541V146.351H68.2974V136.595H48.7839V117.081H68.2974V136.595H78.0541V126.838H97.5676V117.081H107.324V126.838H97.5676V136.595H107.324V146.351H117.081V126.838H126.838V117.081H117.081V87.8108H136.595V97.5676H146.351V107.324H136.595V117.081H146.351V175.622H126.838V165.865H117.081V175.622H107.324V185.378H97.5676V195.135H107.324V204.892H117.081V214.649H136.595V204.892H126.838V195.135H117.081V185.378H136.595V204.892H146.351V185.378H156.108V204.892H165.865V175.622H175.622V165.865H185.378V175.622H175.622V185.378H185.378V195.135H214.649V185.378H204.892V175.622H195.135V156.108H185.378V146.351H195.135V136.595H204.892V126.838H195.135V117.081H185.378V136.595H175.622V126.838H165.865V136.595H156.108V126.838H165.865V117.081H156.108V87.8108H146.351V78.0541H156.108V87.8108H165.865V48.7838H175.622V68.2973H195.135V58.5405H185.378V39.027H204.892V48.7838H195.135V58.5405H214.649V48.7838H224.405V39.027H243.919V68.2973H224.405V58.5405H214.649V78.0541H224.405V107.324H234.162V97.5676H243.919V146.351H263.433V136.595H253.676V117.081H273.189V146.351H292.703V136.595H282.946V117.081H292.703V136.595H302.46V126.838H321.973V146.351H312.216V136.595H302.46V146.351H292.703V175.622H302.46V185.378H292.703V195.135H273.189V204.892H263.433V214.649H243.919V204.892H234.162V195.135H224.405V214.649H234.162V224.405H263.433V234.162H282.946V224.405H273.189V214.649H282.946V204.892H292.703V214.649H302.46V224.405H312.216V204.892H302.46V195.135H321.973V224.405H312.216V243.919H321.973V263.432H312.216V292.703H321.973V302.459H292.703V321.973H263.433V312.216H282.946V302.459H263.433V282.946H253.676V302.459H243.919V312.216H253.676V321.973H234.162V292.703H224.405V312.216H214.649V302.459H204.892V263.432H214.649V292.703H224.405V263.432H234.162V243.919H224.405V234.162H214.649V224.405H224.405V214.649H214.649V204.892H204.892V243.919H214.649V253.676H195.135V273.189H185.378V292.703H195.135V302.459H185.378V312.216H204.892V321.973H185.378V312.216H175.622V302.459H165.865V321.973H126.838V317.095ZM156.108 302.459V292.703H165.865V263.432H146.351V273.189H156.108V282.946H136.595V292.703H126.838V302.459H136.595V312.216H156.108V302.459ZM292.703 292.703V282.946H302.46V263.432H312.216V253.676H302.46V224.405H292.703V253.676H302.46V263.432H292.703V273.189H282.946V302.459H292.703V292.703ZM243.919 287.824V282.946H234.162V292.703H243.919V287.824ZM185.378 268.311V263.432H175.622V273.189H185.378V268.311ZM273.189 258.554V243.919H243.919V273.189H273.189V258.554ZM253.676 258.554V253.676H263.433V263.432H253.676V258.554ZM175.622 248.797V243.919H195.135V234.162H175.622V224.405H165.865V234.162H175.622V243.919H156.108V234.162H146.351V243.919H136.595V234.162H126.838V224.405H117.081V214.649H107.324V224.405H97.5676V234.162H107.324V224.405H117.081V234.162H126.838V243.919H136.595V253.676H175.622V248.797ZM146.351 219.527V214.649H136.595V224.405H146.351V219.527ZM195.135 214.649V204.892H175.622V214.649H185.378V224.405H195.135V214.649ZM253.676 200.014V195.135H243.919V204.892H253.676V200.014ZM273.189 190.257V185.378H282.946V156.108H273.189V165.865H263.433V175.622H253.676V165.865H234.162V156.108H224.405V146.351H234.162V117.081H224.405V107.324H214.649V97.5676H204.892V107.324H195.135V78.0541H204.892V87.8108H214.649V78.0541H204.892V68.2973H195.135V78.0541H185.378V107.324H195.135V117.081H204.892V107.324H214.649V136.595H204.892V146.351H195.135V156.108H204.892V175.622H214.649V165.865H234.162V175.622H243.919V185.378H263.433V195.135H273.189V190.257ZM263.433 180.5V175.622H273.189V185.378H263.433V180.5ZM107.324 170.743V165.865H117.081V156.108H107.324V165.865H97.5676V175.622H107.324V170.743ZM136.595 151.23V146.351H126.838V156.108H136.595V151.23ZM136.595 102.446V97.5676H126.838V107.324H136.595V102.446ZM175.622 97.5676V87.8108H165.865V107.324H175.622V97.5676ZM234.162 53.6622V48.7838H224.405V58.5405H234.162V53.6622ZM312.216 317.095V312.216H321.973V321.973H312.216V317.095ZM312.216 175.622V165.865H302.46V156.108H312.216V165.865H321.973V185.378H312.216V175.622ZM39.0271 73.1757V39.027H107.324V107.324H39.0271V73.1757ZM97.5676 73.1757V48.7838H48.7839V97.5676H97.5676V73.1757ZM58.5406 73.1757V58.5405H87.8109V87.8108H58.5406V73.1757ZM253.676 73.1757V39.027H321.973V107.324H253.676V73.1757ZM312.216 73.1757V48.7838H263.433V97.5676H312.216V73.1757ZM273.189 73.1757V58.5405H302.46V87.8108H273.189V73.1757ZM117.081 73.1757V68.2973H126.838V78.0541H117.081V73.1757ZM136.595 63.4189V58.5405H126.838V39.027H136.595V48.7838H146.351V39.027H156.108V48.7838H146.351V68.2973H136.595V63.4189Z" fill="black"/>
</svg>
